<?xml version="1.0" encoding="UTF-8"?>
<svg width="103px" height="23px" viewBox="0 0 103 23" version="1.1" xmlns="http://www.w3.org/2000/svg" xmlns:xlink="http://www.w3.org/1999/xlink">
    <!-- Generator: Sketch 57.1 (83088) - https://sketch.com -->
    <title>编组</title>
    <desc>Created with Sketch.</desc>
    <defs>
        <polygon id="path-1" points="0.048 1.70575693e-05 22.7268377 1.70575693e-05 22.7268377 22.8571429 0.048 22.8571429"></polygon>
        <polygon id="path-3" points="9.84787057e-05 0.101339019 8.90224307 0.101339019 8.90224307 9.04051173 9.84787057e-05 9.04051173"></polygon>
        <polygon id="path-5" points="0.0161876333 1.70575693e-05 22.6950253 1.70575693e-05 22.6950253 22.8571429 0.0161876333 22.8571429"></polygon>
        <polygon id="path-7" points="0.138691229 0.101339019 9.04083582 0.101339019 9.04083582 9.04051173 0.138691229 9.04051173"></polygon>
        <polygon id="path-9" points="0.0320805498 1.70575693e-05 22.3271105 1.70575693e-05 22.3271105 22.8571429 0.0320805498 22.8571429"></polygon>
        <polygon id="path-11" points="0.155235353 1.70575693e-05 19.9534328 1.70575693e-05 19.9534328 22.8571429 0.155235353 22.8571429"></polygon>
        <polygon id="path-13" points="0.0261921512 0.0955394456 9.64155224 0.0955394456 9.64155224 9.89339019 0.0261921512 9.89339019"></polygon>
    </defs>
    <g id="BAC官网" stroke="none" stroke-width="1" fill="none" fill-rule="evenodd">
        <g id="下载页备份" transform="translate(-30.000000, -28.000000)">
            <g id="编组" transform="translate(30.000000, 28.000000)">
                <g transform="translate(1.535181, 0.000000)">
                    <mask id="mask-2" fill="white">
                        <use xlink:href="#path-1"></use>
                    </mask>
                    <g id="Clip-2"></g>
                    <path d="M17.391113,9.38168017 C17.1618593,11.6017228 15.4629254,13.4688443 13.3604094,14.020145 L4.89234968,4.57707463 L13.0825416,4.57707463 C15.7360171,4.57707463 17.6650576,6.72803412 17.391113,9.38168017 M14.2632665,1.70575693e-05 L1.40322388,1.70575693e-05 C1.05354371,1.70575693e-05 0.76049467,0.264409382 0.724503198,0.61221322 L0.315292111,4.57707463 L0.048,7.16419616 L10.8800682,19.2431727 L10.8723923,19.3177143 L10.9276588,19.2965629 L14.1206652,22.8571599 L20.9029254,22.8571599 C21.0503028,22.8571599 21.1282559,22.682661 21.0298337,22.5726397 L16.6944819,17.7381834 C19.8926055,16.1854328 22.2997697,13.027565 22.6762303,9.38168017 C23.2111557,4.20027292 19.4445032,1.70575693e-05 14.2632665,1.70575693e-05" id="Fill-1" fill="#FFFFFF" mask="url(#mask-2)"></path>
                </g>
                <g transform="translate(0.000000, 13.816631)">
                    <mask id="mask-4" fill="white">
                        <use xlink:href="#path-3"></use>
                    </mask>
                    <g id="Clip-4"></g>
                    <path d="M0.341219616,9.04052878 L8.90224307,9.04052878 L0.885867804,0.101339019 L0.0019445629,8.66440938 C-0.0188656716,8.86551812 0.138916844,9.04052878 0.341219616,9.04052878" id="Fill-3" fill="#FFFFFF" mask="url(#mask-4)"></path>
                </g>
                <g transform="translate(28.827292, 0.000000)">
                    <mask id="mask-6" fill="white">
                        <use xlink:href="#path-5"></use>
                    </mask>
                    <g id="Clip-6"></g>
                    <path d="M17.3593006,9.38168017 C17.1300469,11.6017228 15.431113,13.4688443 13.3284264,14.020145 L4.86036674,4.57707463 L13.0505586,4.57707463 C15.7042047,4.57707463 17.6330746,6.72803412 17.3593006,9.38168017 M14.2312836,1.70575693e-05 L1.37141151,1.70575693e-05 C1.02173134,1.70575693e-05 0.728511727,0.264409382 0.692690832,0.61221322 L0.283309168,4.57707463 L0.0161876333,7.16419616 L10.8480853,19.2431727 L10.8404094,19.3177143 L10.8958465,19.2965629 L14.0888529,22.8571599 L20.8709424,22.8571599 C21.0184904,22.8571599 21.0964435,22.682661 20.9980213,22.5726397 L16.6626695,17.7381834 C19.8607932,16.1854328 22.2679574,13.027565 22.6444179,9.38168017 C23.1793433,4.20027292 19.4126908,1.70575693e-05 14.2312836,1.70575693e-05" id="Fill-5" fill="#FFFFFF" mask="url(#mask-6)"></path>
                </g>
                <g transform="translate(27.121535, 13.816631)">
                    <mask id="mask-8" fill="white">
                        <use xlink:href="#path-7"></use>
                    </mask>
                    <g id="Clip-8"></g>
                    <path d="M0.479812367,9.04052878 L9.04083582,9.04052878 L1.02463113,0.101339019 L0.140537313,8.66440938 C0.119727079,8.86551812 0.277509595,9.04052878 0.479812367,9.04052878" id="Fill-7" fill="#FFFFFF" mask="url(#mask-8)"></path>
                </g>
                <path d="M65.7518294,13.7052111 L75.3951557,13.7052111 C75.56829,13.7052111 75.713791,13.5755736 75.7340896,13.4036333 L76.2101663,9.34239659 C76.2221066,9.24107463 76.1427889,9.15203412 76.0406141,9.15203412 L66.3972878,9.15203412 C66.2243241,9.15203412 66.0786525,9.28150107 66.0585245,9.45344136 L65.5824478,13.5148486 C65.570678,13.6161706 65.6496546,13.7052111 65.7518294,13.7052111" id="Fill-9" fill="#FFFFFF"></path>
                <g transform="translate(54.925373, 0.000000)">
                    <mask id="mask-10" fill="white">
                        <use xlink:href="#path-9"></use>
                    </mask>
                    <g id="Clip-12"></g>
                    <path d="M3.1400597,1.70575693e-05 C2.79225586,1.70575693e-05 2.5000597,0.261509595 2.46185075,0.607266525 L0.034217484,22.4783113 C0.0117014925,22.6804435 0.169995736,22.8571599 0.373151386,22.8571599 L5.37954797,22.8571599 L19.8109339,22.8571599 L19.8465842,22.8571599 L20.3240256,18.4929808 C20.335113,18.392 20.2561365,18.3039829 20.1544733,18.3039829 L5.883258,18.3039829 L7.4046226,4.55319403 L21.5429595,4.55319403 C21.7169467,4.55319403 21.8631301,4.4221919 21.882064,4.24905757 L22.3260725,0.189014925 C22.3371599,0.0882046908 22.2580128,1.70575693e-05 22.1563497,1.70575693e-05 L7.90833262,1.70575693e-05 L3.1400597,1.70575693e-05 Z" id="Fill-11" fill="#FFFFFF" mask="url(#mask-10)"></path>
                </g>
                <g transform="translate(82.899787, 0.000000)">
                    <mask id="mask-12" fill="white">
                        <use xlink:href="#path-11"></use>
                    </mask>
                    <g id="Clip-14"></g>
                    <path d="M19.6115991,1.70575693e-05 L13.9889126,1.70575693e-05 C13.7722814,1.70575693e-05 13.5682729,0.103044776 13.4396588,0.277373134 L9.16929638,6.06961194 L6.2463113,0.370848614 C6.12946695,0.14330064 5.89509595,1.70575693e-05 5.63923241,1.70575693e-05 L0.325970149,1.70575693e-05 C0.198379531,1.70575693e-05 0.115991471,0.134942431 0.174328358,0.248375267 L11.5812367,22.4861578 C11.6979104,22.7138763 11.9322814,22.8571599 12.188145,22.8571599 L17.5014072,22.8571599 C17.6288273,22.8571599 17.7112154,22.7222345 17.6532196,22.6088017 L11.8949254,11.3828742 L19.886226,0.543641791 C20.0523667,0.318311301 19.8915139,1.70575693e-05 19.6115991,1.70575693e-05" id="Fill-13" fill="#FFFFFF" mask="url(#mask-12)"></path>
                </g>
                <g transform="translate(80.000000, 12.963753)">
                    <mask id="mask-14" fill="white">
                        <use xlink:href="#path-13"></use>
                    </mask>
                    <g id="Clip-16"></g>
                    <path d="M0.368034115,9.89340725 L6.33528358,9.89340725 L9.64155224,5.40880171 L6.91626439,0.0955394456 L0.0934072495,9.34978252 C-0.0727334755,9.57511301 0.088119403,9.89340725 0.368034115,9.89340725" id="Fill-15" fill="#FFFFFF" mask="url(#mask-14)"></path>
                </g>
            </g>
        </g>
    </g>
</svg>